<mxfile host="app.diagrams.net" modified="2024-05-28T00:35:51.350Z" agent="Mozilla/5.0 (Macintosh; Intel Mac OS X 10.15; rv:126.0) Gecko/20100101 Firefox/126.0" etag="Djsb0DD-zvPv_37APkRW" version="24.4.8" type="device">
  <diagram name="Page-1" id="MhiAEPfmGE0z-TVPYn1G">
    <mxGraphModel dx="2284" dy="1838" grid="1" gridSize="10" guides="1" tooltips="1" connect="1" arrows="1" fold="1" page="1" pageScale="1" pageWidth="850" pageHeight="1100" math="0" shadow="0">
      <root>
        <mxCell id="0" />
        <mxCell id="1" parent="0" />
        <mxCell id="tuFeNfAoOwvemYcBCo26-1" value="FileOO2" style="swimlane;fontStyle=1;align=center;verticalAlign=top;childLayout=stackLayout;horizontal=1;startSize=26;horizontalStack=0;resizeParent=1;resizeParentMax=0;resizeLast=0;collapsible=1;marginBottom=0;whiteSpace=wrap;html=1;" vertex="1" parent="1">
          <mxGeometry x="-40" y="160" width="870" height="440" as="geometry" />
        </mxCell>
        <mxCell id="tuFeNfAoOwvemYcBCo26-2" value="&lt;div&gt;- nombre: String&lt;/div&gt;&lt;div&gt;&lt;br&gt;&lt;/div&gt;&lt;div&gt;- extension: String&lt;/div&gt;&lt;div&gt;&lt;br&gt;&lt;/div&gt;&lt;div&gt;- tamano: Real&lt;/div&gt;&lt;div&gt;&lt;br&gt;&lt;/div&gt;&lt;div&gt;- fechaDeCreacion: Date&lt;/div&gt;&lt;div&gt;&lt;br&gt;&lt;/div&gt;&lt;div&gt;- fechaDeModificacion: Date&lt;br&gt;&lt;/div&gt;&lt;div&gt;&lt;br&gt;&lt;/div&gt;&lt;div&gt;- permisos: String[*]&lt;br&gt;&lt;/div&gt;" style="text;strokeColor=none;fillColor=none;align=left;verticalAlign=top;spacingLeft=4;spacingRight=4;overflow=hidden;rotatable=0;points=[[0,0.5],[1,0.5]];portConstraint=eastwest;whiteSpace=wrap;html=1;" vertex="1" parent="tuFeNfAoOwvemYcBCo26-1">
          <mxGeometry y="26" width="870" height="174" as="geometry" />
        </mxCell>
        <mxCell id="tuFeNfAoOwvemYcBCo26-3" value="" style="line;strokeWidth=1;fillColor=none;align=left;verticalAlign=middle;spacingTop=-1;spacingLeft=3;spacingRight=3;rotatable=0;labelPosition=right;points=[];portConstraint=eastwest;strokeColor=inherit;" vertex="1" parent="tuFeNfAoOwvemYcBCo26-1">
          <mxGeometry y="200" width="870" height="8" as="geometry" />
        </mxCell>
        <mxCell id="tuFeNfAoOwvemYcBCo26-4" value="&lt;div&gt;+ &amp;lt;&amp;lt;create&amp;gt;&amp;gt; createFileOO2(nombre: String, extension: String, tamano: Real, fechaDeCreacion: Date, fechaDeModificacion: Date, permisos: String[*]): FileOO2&lt;/div&gt;&lt;div&gt;&lt;br&gt;&lt;/div&gt;&lt;div&gt;+ prettyPrint(): String&lt;/div&gt;&lt;div&gt;&lt;br&gt;&lt;/div&gt;&lt;div&gt;+ getNombre(): String&lt;/div&gt;&lt;div&gt;&lt;br&gt;&lt;/div&gt;&lt;div&gt;+ getExtension(): String&lt;/div&gt;&lt;div&gt;&lt;br&gt;&lt;/div&gt;&lt;div&gt;+ getTamano(): String&lt;/div&gt;&lt;div&gt;&lt;br&gt;&lt;/div&gt;&lt;div&gt;+ getFechaDeCreacion(): Date&lt;/div&gt;&lt;div&gt;&lt;br&gt;&lt;/div&gt;&lt;div&gt;+ getFechaDeModificacion(): Date&lt;/div&gt;&lt;div&gt;&lt;br&gt;&lt;/div&gt;&lt;div&gt;+ getPermisos(): String[*]&lt;br&gt;&lt;/div&gt;" style="text;strokeColor=none;fillColor=none;align=left;verticalAlign=top;spacingLeft=4;spacingRight=4;overflow=hidden;rotatable=0;points=[[0,0.5],[1,0.5]];portConstraint=eastwest;whiteSpace=wrap;html=1;" vertex="1" parent="tuFeNfAoOwvemYcBCo26-1">
          <mxGeometry y="208" width="870" height="232" as="geometry" />
        </mxCell>
        <mxCell id="tuFeNfAoOwvemYcBCo26-6" value="&amp;lt;&amp;lt;abstract&amp;gt;&amp;gt;&lt;br&gt;&lt;div&gt;FileOO2Decorator&lt;/div&gt;" style="swimlane;fontStyle=1;align=center;verticalAlign=top;childLayout=stackLayout;horizontal=1;startSize=40;horizontalStack=0;resizeParent=1;resizeParentMax=0;resizeLast=0;collapsible=1;marginBottom=0;whiteSpace=wrap;html=1;" vertex="1" parent="1">
          <mxGeometry x="1040" y="160" width="440" height="110" as="geometry" />
        </mxCell>
        <mxCell id="tuFeNfAoOwvemYcBCo26-8" value="" style="line;strokeWidth=1;fillColor=none;align=left;verticalAlign=middle;spacingTop=-1;spacingLeft=3;spacingRight=3;rotatable=0;labelPosition=right;points=[];portConstraint=eastwest;strokeColor=inherit;" vertex="1" parent="tuFeNfAoOwvemYcBCo26-6">
          <mxGeometry y="40" width="440" height="8" as="geometry" />
        </mxCell>
        <mxCell id="tuFeNfAoOwvemYcBCo26-9" value="+ &amp;lt;&amp;lt;create&amp;gt;&amp;gt; createFileOO2Decorator(component: FileOO2): FileOO2Decorator&lt;br&gt;&lt;div&gt;&lt;br&gt;&lt;/div&gt;&lt;div&gt;+ prettyPrint(): String&lt;/div&gt;" style="text;strokeColor=none;fillColor=none;align=left;verticalAlign=top;spacingLeft=4;spacingRight=4;overflow=hidden;rotatable=0;points=[[0,0.5],[1,0.5]];portConstraint=eastwest;whiteSpace=wrap;html=1;" vertex="1" parent="tuFeNfAoOwvemYcBCo26-6">
          <mxGeometry y="48" width="440" height="62" as="geometry" />
        </mxCell>
        <mxCell id="tuFeNfAoOwvemYcBCo26-10" value="&lt;div&gt;&amp;lt;&amp;lt;interface&amp;gt;&amp;gt;&lt;/div&gt;&lt;div&gt;IFileOO2&lt;br&gt;&lt;/div&gt;" style="swimlane;fontStyle=0;childLayout=stackLayout;horizontal=1;startSize=40;fillColor=none;horizontalStack=0;resizeParent=1;resizeParentMax=0;resizeLast=0;collapsible=1;marginBottom=0;whiteSpace=wrap;html=1;" vertex="1" parent="1">
          <mxGeometry x="760" y="-80" width="140" height="66" as="geometry" />
        </mxCell>
        <mxCell id="tuFeNfAoOwvemYcBCo26-11" value="+ prettyPrint(): String" style="text;strokeColor=none;fillColor=none;align=left;verticalAlign=top;spacingLeft=4;spacingRight=4;overflow=hidden;rotatable=0;points=[[0,0.5],[1,0.5]];portConstraint=eastwest;whiteSpace=wrap;html=1;" vertex="1" parent="tuFeNfAoOwvemYcBCo26-10">
          <mxGeometry y="40" width="140" height="26" as="geometry" />
        </mxCell>
        <mxCell id="tuFeNfAoOwvemYcBCo26-18" value="" style="endArrow=block;dashed=1;endFill=0;endSize=12;html=1;rounded=0;exitX=0.75;exitY=0;exitDx=0;exitDy=0;entryX=0;entryY=1;entryDx=0;entryDy=0;" edge="1" parent="1" source="tuFeNfAoOwvemYcBCo26-1" target="tuFeNfAoOwvemYcBCo26-10">
          <mxGeometry width="160" relative="1" as="geometry">
            <mxPoint x="460" y="80" as="sourcePoint" />
            <mxPoint x="620" y="80" as="targetPoint" />
          </mxGeometry>
        </mxCell>
        <mxCell id="tuFeNfAoOwvemYcBCo26-19" value="" style="endArrow=block;dashed=1;endFill=0;endSize=12;html=1;rounded=0;entryX=1;entryY=1;entryDx=0;entryDy=0;exitX=0.25;exitY=0;exitDx=0;exitDy=0;" edge="1" parent="1" source="tuFeNfAoOwvemYcBCo26-6" target="tuFeNfAoOwvemYcBCo26-10">
          <mxGeometry width="160" relative="1" as="geometry">
            <mxPoint x="1080" y="110" as="sourcePoint" />
            <mxPoint x="1170" y="-1" as="targetPoint" />
          </mxGeometry>
        </mxCell>
        <mxCell id="tuFeNfAoOwvemYcBCo26-20" style="edgeStyle=orthogonalEdgeStyle;rounded=0;orthogonalLoop=1;jettySize=auto;html=1;exitX=0;exitY=0.5;exitDx=0;exitDy=0;" edge="1" parent="1" target="tuFeNfAoOwvemYcBCo26-1">
          <mxGeometry relative="1" as="geometry">
            <mxPoint x="1040" y="213" as="sourcePoint" />
          </mxGeometry>
        </mxCell>
        <mxCell id="tuFeNfAoOwvemYcBCo26-21" value="&lt;div&gt;componente&lt;/div&gt;" style="edgeLabel;html=1;align=center;verticalAlign=middle;resizable=0;points=[];" vertex="1" connectable="0" parent="tuFeNfAoOwvemYcBCo26-20">
          <mxGeometry x="-0.0027" y="1" relative="1" as="geometry">
            <mxPoint as="offset" />
          </mxGeometry>
        </mxCell>
        <mxCell id="tuFeNfAoOwvemYcBCo26-22" value="FileOO2CreacionDecorator" style="swimlane;fontStyle=1;align=center;verticalAlign=top;childLayout=stackLayout;horizontal=1;startSize=26;horizontalStack=0;resizeParent=1;resizeParentMax=0;resizeLast=0;collapsible=1;marginBottom=0;whiteSpace=wrap;html=1;" vertex="1" parent="1">
          <mxGeometry x="960" y="440" width="200" height="60" as="geometry" />
        </mxCell>
        <mxCell id="tuFeNfAoOwvemYcBCo26-24" value="" style="line;strokeWidth=1;fillColor=none;align=left;verticalAlign=middle;spacingTop=-1;spacingLeft=3;spacingRight=3;rotatable=0;labelPosition=right;points=[];portConstraint=eastwest;strokeColor=inherit;" vertex="1" parent="tuFeNfAoOwvemYcBCo26-22">
          <mxGeometry y="26" width="200" height="8" as="geometry" />
        </mxCell>
        <mxCell id="tuFeNfAoOwvemYcBCo26-25" value="&lt;div&gt;+ prettyPrint(): String&lt;/div&gt;" style="text;strokeColor=none;fillColor=none;align=left;verticalAlign=top;spacingLeft=4;spacingRight=4;overflow=hidden;rotatable=0;points=[[0,0.5],[1,0.5]];portConstraint=eastwest;whiteSpace=wrap;html=1;" vertex="1" parent="tuFeNfAoOwvemYcBCo26-22">
          <mxGeometry y="34" width="200" height="26" as="geometry" />
        </mxCell>
        <mxCell id="tuFeNfAoOwvemYcBCo26-27" value="Extends" style="endArrow=block;endSize=16;endFill=0;html=1;rounded=0;exitX=0.5;exitY=0;exitDx=0;exitDy=0;entryX=0.25;entryY=1;entryDx=0;entryDy=0;" edge="1" parent="1" source="tuFeNfAoOwvemYcBCo26-22" target="tuFeNfAoOwvemYcBCo26-6">
          <mxGeometry width="160" relative="1" as="geometry">
            <mxPoint x="1100" y="620" as="sourcePoint" />
            <mxPoint x="1170" y="430" as="targetPoint" />
          </mxGeometry>
        </mxCell>
        <mxCell id="tuFeNfAoOwvemYcBCo26-28" value="FileOO2InformacionDecorator" style="swimlane;fontStyle=1;align=center;verticalAlign=top;childLayout=stackLayout;horizontal=1;startSize=26;horizontalStack=0;resizeParent=1;resizeParentMax=0;resizeLast=0;collapsible=1;marginBottom=0;whiteSpace=wrap;html=1;" vertex="1" parent="1">
          <mxGeometry x="1280" y="440" width="200" height="60" as="geometry" />
        </mxCell>
        <mxCell id="tuFeNfAoOwvemYcBCo26-29" value="" style="line;strokeWidth=1;fillColor=none;align=left;verticalAlign=middle;spacingTop=-1;spacingLeft=3;spacingRight=3;rotatable=0;labelPosition=right;points=[];portConstraint=eastwest;strokeColor=inherit;" vertex="1" parent="tuFeNfAoOwvemYcBCo26-28">
          <mxGeometry y="26" width="200" height="8" as="geometry" />
        </mxCell>
        <mxCell id="tuFeNfAoOwvemYcBCo26-30" value="&lt;div&gt;+ prettyPrint(): String&lt;/div&gt;" style="text;strokeColor=none;fillColor=none;align=left;verticalAlign=top;spacingLeft=4;spacingRight=4;overflow=hidden;rotatable=0;points=[[0,0.5],[1,0.5]];portConstraint=eastwest;whiteSpace=wrap;html=1;" vertex="1" parent="tuFeNfAoOwvemYcBCo26-28">
          <mxGeometry y="34" width="200" height="26" as="geometry" />
        </mxCell>
        <mxCell id="tuFeNfAoOwvemYcBCo26-31" value="Extends" style="endArrow=block;endSize=16;endFill=0;html=1;rounded=0;exitX=0.5;exitY=0;exitDx=0;exitDy=0;entryX=0.5;entryY=1;entryDx=0;entryDy=0;" edge="1" parent="1" source="tuFeNfAoOwvemYcBCo26-28" target="tuFeNfAoOwvemYcBCo26-6">
          <mxGeometry width="160" relative="1" as="geometry">
            <mxPoint x="1400" y="400" as="sourcePoint" />
            <mxPoint x="1310" y="340" as="targetPoint" />
          </mxGeometry>
        </mxCell>
      </root>
    </mxGraphModel>
  </diagram>
</mxfile>
